<svg xmlns="http://www.w3.org/2000/svg" width="410" height="404" viewBox="0 0 410 404" fill="none">
  <path d="M399.641 59.5246L215.643 388.545C211.844 395.338 202.084 395.378 198.228 388.623L10.5817 59.5563C6.38087 52.1896 12.6802 43.2665 21.0281 44.7586L205.223 77.6824C206.398 77.8924 207.601 77.8904 208.776 77.6763L389.119 44.8058C397.439 43.2894 403.768 52.1434 399.641 59.5246Z" fill="url(#paint0_linear)" />
  <path d="M292.965 1.5744L156.801 28.2552C154.563 28.6937 152.906 30.5903 152.771 32.8765L144.395 174.33C144.198 177.767 147.258 180.429 150.602 179.759L188.42 172.225C191.977 171.516 195.172 174.518 194.443 178.089L183.18 233.682C182.422 237.406 185.907 240.591 189.532 239.56L212.947 232.961C216.577 231.929 220.065 235.123 219.297 238.85L201.398 324.228C200.278 329.589 207.486 332.55 210.492 327.884L212.5 324.756L323.69 102.072C325.569 98.2586 322.35 93.8686 318.15 94.6831L279.5 102.072C275.837 102.787 272.792 99.3561 273.812 95.7786L300.678 1.93186C301.698 -1.64564 298.653 -5.07714 294.99 -4.36189Z" fill="url(#paint1_linear)" />
  <defs>
    <linearGradient id="paint0_linear" x1="6.00017" y1="32.9999" x2="235" y2="344" gradientUnits="userSpaceOnUse">
      <stop stop-color="#41D1FF" />
      <stop offset="1" stop-color="#BD34FE" />
    </linearGradient>
    <linearGradient id="paint1_linear" x1="194.651" y1="8.81818" x2="236.076" y2="292.989" gradientUnits="userSpaceOnUse">
      <stop stop-color="#FFEA83" />
      <stop offset="0.0833333" stop-color="#FFDD35" />
      <stop offset="1" stop-color="#FFA800" />
    </linearGradient>
  </defs>
</svg>
